<svg xmlns="http://www.w3.org/2000/svg" width="122" height="151" viewBox="0 0 122 151"><defs><style>.a{fill:#b1bbcd;}.b{fill:#707070;font-size:24px;font-family:Poppins-Regular, Poppins;}</style></defs><g transform="translate(27.988 0)"><path class="a" d="M77.378,50.917V14.676a1.334,1.334,0,0,0-.594-1.11L59.342,1.939A6.035,6.035,0,0,0,52.389.552L49.677,1.79l-.114-.169a1.334,1.334,0,0,0-1.851-.36L43.288,4.244a1.334,1.334,0,0,0-.36,1.851l2.323,3.446a13.029,13.029,0,0,0-2.915,3.046l2.2,1.51a10.381,10.381,0,0,1,2.213-2.339L49.9,16.431l-2.416-.873a13.073,13.073,0,0,0-.78,4.454h2.667a10.413,10.413,0,0,1,.6-3.479l.419.621a1.334,1.334,0,0,0,1.851.36l4.423-2.983a1.334,1.334,0,0,0,.36-1.851h0l-.114-.169,1.5-1.417,10.975,6.983V50.688h-8a5.341,5.341,0,0,0-5.335-5.335v-8a16.157,16.157,0,0,0-.219-2.648,11.044,11.044,0,0,0,4.2-7.937c.015-.236.023-.476.023-.716V22.679a1.334,1.334,0,0,0-1.334-1.334h-8a1.336,1.336,0,0,0-.8.267l-2.231,1.672a16.021,16.021,0,0,0-15.279,0l-2.23-1.672a1.336,1.336,0,0,0-.8-.267h-8a1.334,1.334,0,0,0-1.334,1.334V26.05c0,.239.008.48.023.717a11.044,11.044,0,0,0,4.2,7.936,16.153,16.153,0,0,0-.219,2.647v8a5.341,5.341,0,0,0-5.335,5.335H4.022a4,4,0,0,0-1.334,7.773v6.9A14.688,14.688,0,0,0,17.359,80.03H62.706A14.688,14.688,0,0,0,77.378,65.359v-6.9a4,4,0,0,0,0-7.546ZM51.851,14.556,45.885,5.71,48.1,4.219l5.966,8.846Zm5.385-6.033-1.842,1.745L51.189,4.033,53.5,2.98a3.39,3.39,0,0,1,3.739,5.544Zm2.935.535a6.029,6.029,0,0,0,.793-2.831L74.71,15.39v35.3H72.043V17.344a1.334,1.334,0,0,0-.617-1.125ZM56.038,48.02a2.671,2.671,0,0,1,2.667,2.667,1.335,1.335,0,0,1-1.334,1.334H54.7a1.335,1.335,0,0,1-1.334-1.334A2.671,2.671,0,0,1,56.038,48.02Zm-16-2.546a7.3,7.3,0,0,0,5.335,0V48.02a6.68,6.68,0,0,0,6.271-4.4,6.659,6.659,0,0,0,1.732-.939V46.07A5.337,5.337,0,0,0,50.7,50.688H29.363A5.337,5.337,0,0,0,26.7,46.07V42.681a6.659,6.659,0,0,0,1.732.939,6.68,6.68,0,0,0,6.271,4.4V45.474A7.3,7.3,0,0,0,40.033,45.474ZM38.7,38.684V37.35h2.667v1.334a1.334,1.334,0,0,1-2.667,0ZM55.05,31.809a16.046,16.046,0,0,0-2.017-3.795h4.1a8.392,8.392,0,0,1-2.085,3.795Zm-32.356-7.8h6.224L31.5,25.948a1.334,1.334,0,0,0,1.505.065,13.342,13.342,0,0,1,14.054,0,1.334,1.334,0,0,0,1.505-.065l2.582-1.936h6.224v1.334H51.915a1.334,1.334,0,0,0-.958.405l-.907.935a1.334,1.334,0,0,0-.04,1.814,13.273,13.273,0,0,1,3.36,8.849,3.992,3.992,0,0,1-1.334,2.979V38.684H49.369v2.667a4.006,4.006,0,0,1-3.678,3.987c.092-.041.183-.082.273-.127l-1.193-2.386a4.657,4.657,0,0,1-3.4.291v-.662a4.008,4.008,0,0,0,2.667-3.772V36.016A1.334,1.334,0,0,0,42.7,34.683H37.365a1.334,1.334,0,0,0-1.334,1.334v2.667A4.008,4.008,0,0,0,38.7,42.456v.663a4.66,4.66,0,0,1-3.4-.292L34.1,45.213c.09.045.182.086.273.127A4.006,4.006,0,0,1,30.7,41.351V38.684H28.029v1.645A3.992,3.992,0,0,1,26.7,37.35a13.274,13.274,0,0,1,3.36-8.849,1.334,1.334,0,0,0-.04-1.814l-.907-.935a1.334,1.334,0,0,0-.958-.405H22.694Zm.237,4h4.1a16.049,16.049,0,0,0-2.017,3.795A8.387,8.387,0,0,1,22.931,28.014Zm1.1,20.006A2.671,2.671,0,0,1,26.7,50.688a1.335,1.335,0,0,1-1.334,1.334H22.694a1.335,1.335,0,0,1-1.334-1.334A2.671,2.671,0,0,1,24.028,48.02ZM74.71,65.359a12.017,12.017,0,0,1-12,12H17.359a12.017,12.017,0,0,1-12-12V64.025h6.669a1.334,1.334,0,1,0,0-2.667H5.355V58.69H74.71Zm2.28-9.728a1.332,1.332,0,0,1-.946.391H4.022a1.334,1.334,0,0,1,0-2.667H19.715a3.992,3.992,0,0,0,2.979,1.334h2.667a3.992,3.992,0,0,0,2.979-1.334H51.725A3.992,3.992,0,0,0,54.7,54.689h2.667a3.992,3.992,0,0,0,2.979-1.334H76.044a1.335,1.335,0,0,1,.946,2.276Z" transform="translate(-0.008 0)"/><path class="a" d="M0,0H4.218V2.668H0Z" transform="matrix(0.949, -0.316, 0.316, 0.949, 32.936, 32.103)"/><path class="a" d="M0,0H2.668V4.218H0Z" transform="matrix(0.316, -0.949, 0.949, 0.316, 42.27, 33.26)"/><path class="a" d="M200.012,97.766h2.667a10.411,10.411,0,0,1,.621-3.548l-2.509-.906A13.069,13.069,0,0,0,200.012,97.766Z" transform="translate(-166.656 -77.755)"/><path class="a" d="M217.893,49.74a13.02,13.02,0,0,0-4.062,3.82l2.2,1.51a10.37,10.37,0,0,1,3.236-3.042l.95-.57-1.372-2.287Z" transform="translate(-178.171 -40.972)"/><path class="a" d="M240.012,97.766h2.667a10.411,10.411,0,0,1,.621-3.548l-2.509-.906A13.069,13.069,0,0,0,240.012,97.766Z" transform="translate(-199.988 -77.755)"/><path class="a" d="M24.012,214.7a6.669,6.669,0,1,0,6.669-6.669A6.669,6.669,0,0,0,24.012,214.7Zm6.669-4a4,4,0,1,1-4,4A4,4,0,0,1,30.681,210.7Z" transform="translate(-19.999 -173.347)"/><path class="a" d="M5.347,136.03a5.335,5.335,0,1,0,5.335,5.335A5.335,5.335,0,0,0,5.347,136.03Zm0,8a2.668,2.668,0,1,1,2.667-2.668A2.667,2.667,0,0,1,5.347,144.033Z" transform="translate(0 -113.351)"/><path class="a" d="M352.012,220.031a4,4,0,1,0,4-4A4,4,0,0,0,352.012,220.031Zm4-1.334a1.334,1.334,0,1,1-1.334,1.334A1.334,1.334,0,0,1,356.013,218.7Z" transform="translate(-293.315 -180.014)"/><path class="a" d="M97.346,370.7h1.334a1.334,1.334,0,1,0,0-2.667H97.346a1.334,1.334,0,1,0,0,2.667Z" transform="translate(-79.995 -306.672)"/><path class="a" d="M233.346,380.031a1.334,1.334,0,0,0,1.334-1.334v-1.334a1.334,1.334,0,0,0-2.667,0V378.7A1.334,1.334,0,0,0,233.346,380.031Z" transform="translate(-193.321 -313.339)"/><path class="a" d="M209.346,396.031a1.334,1.334,0,0,0,1.334-1.334v-1.334a1.334,1.334,0,0,0-2.668,0V394.7A1.334,1.334,0,0,0,209.346,396.031Z" transform="translate(-173.323 -326.671)"/><path class="a" d="M257.346,396.031a1.334,1.334,0,0,0,1.334-1.334v-1.334a1.334,1.334,0,0,0-2.668,0V394.7A1.334,1.334,0,0,0,257.346,396.031Z" transform="translate(-213.32 -326.671)"/><path class="a" d="M216.012,412.031a1.334,1.334,0,0,0,1.334,1.334h5.335a1.334,1.334,0,0,0,0-2.667h-1.334v-1.334a1.334,1.334,0,0,0-2.667,0V410.7h-1.334A1.334,1.334,0,0,0,216.012,412.031Z" transform="translate(-179.989 -340.004)"/><path class="a" d="M361.346,388.034a10.682,10.682,0,0,0,10.67-10.67,1.334,1.334,0,0,0-2.668,0,8.011,8.011,0,0,1-8,8,1.334,1.334,0,0,0,0,2.668Z" transform="translate(-299.981 -313.339)"/><path class="a" d="M321.346,434.7h1.334a1.334,1.334,0,1,0,0-2.668h-1.334a1.334,1.334,0,0,0,0,2.668Z" transform="translate(-266.65 -360.002)"/><text class="b" transform="translate(33.012 143)"><tspan x="-60.276" y="0">Grooming</tspan></text></g></svg>